<?xml version="1.0" standalone="no"?>
<!DOCTYPE svg PUBLIC "-//W3C//DTD SVG 20010904//EN"
 "http://www.w3.org/TR/2001/REC-SVG-20010904/DTD/svg10.dtd">
<svg version="1.0" xmlns="http://www.w3.org/2000/svg"
 width="200.000000pt" height="211.000000pt" viewBox="0 0 200.000000 211.000000"
 preserveAspectRatio="xMidYMid meet">

<g transform="translate(0.000000,211.000000) scale(0.100000,-0.100000)"
fill="#000000" stroke="none">
<path d="M924 1951 c-5 -38 -11 -51 -23 -51 -9 0 -26 -3 -38 -6 -18 -5 -24 1
-42 41 -22 50 -26 51 -91 21 -23 -10 -25 -15 -19 -51 l6 -40 2 41 c1 34 5 43
24 48 46 12 57 7 74 -35 16 -41 17 -41 56 -35 54 9 54 9 62 61 l6 46 42 -3
c42 -3 42 -3 47 -48 5 -47 19 -57 83 -59 24 -1 31 5 44 39 17 43 24 46 71 29
28 -10 31 -14 26 -42 -3 -18 -7 -38 -10 -45 -4 -13 51 -52 75 -52 8 0 28 16
45 35 l31 35 32 -25 33 -26 -21 -41 -21 -40 33 -34 32 -33 42 24 c23 14 44 25
48 25 3 0 15 -14 27 -30 l21 -30 -30 -37 -30 -37 21 -38 c25 -44 22 -43 77
-23 l41 14 15 -29 c22 -43 19 -53 -25 -80 -41 -26 -42 -27 -19 -87 7 -20 16
-23 59 -23 49 0 50 -1 52 -30 0 -16 1 -35 2 -42 1 -7 -20 -18 -46 -26 -48 -13
-48 -13 -48 -57 0 -44 0 -44 48 -58 26 -8 47 -19 46 -26 -1 -6 -2 -24 -2 -41
-2 -29 -3 -30 -57 -30 l-54 0 -13 -42 c-11 -39 -11 -42 12 -57 63 -42 64 -44
45 -80 -17 -35 -30 -37 -101 -16 -17 5 -26 -1 -43 -29 l-23 -36 36 -42 36 -42
-28 -29 -29 -29 -41 26 c-23 14 -45 26 -49 26 -5 0 -21 -12 -37 -26 -26 -23
-27 -28 -17 -51 10 -23 10 -25 -6 -18 -24 9 -180 43 -218 47 -29 3 -28 4 25
29 120 57 225 160 280 275 162 335 -22 721 -386 814 -98 25 -170 25 -268 0
-110 -28 -190 -73 -272 -155 -182 -180 -222 -432 -108 -672 40 -81 168 -209
253 -250 l65 -31 -40 -7 c-21 -4 -77 -15 -123 -26 -46 -11 -86 -17 -88 -15 -3
2 0 13 5 23 9 16 5 24 -23 46 l-35 28 -40 -26 c-22 -14 -44 -25 -49 -25 -5 0
-20 14 -32 31 l-21 31 37 38 37 38 -27 36 c-28 37 -38 39 -103 15 -19 -8 -25
-4 -40 27 -18 39 -17 42 47 84 21 14 22 18 12 58 l-12 42 -54 0 c-54 0 -55 1
-56 30 -1 17 -2 35 -3 42 -1 7 19 17 44 23 45 11 45 11 48 57 l3 46 -43 14
c-41 14 -43 17 -43 54 l0 39 52 3 c52 3 53 3 64 45 10 39 9 43 -12 57 -62 41
-63 43 -44 79 17 35 19 35 96 16 20 -5 28 1 45 32 l22 37 -30 37 -30 38 22 30
c12 17 25 31 28 31 4 0 25 -12 46 -26 l38 -26 26 23 c15 13 31 26 35 30 4 3
-1 26 -12 52 l-20 46 35 22 35 21 32 -37 33 -38 43 22 c24 12 40 25 37 28 -3
3 -20 -4 -38 -15 l-33 -21 -37 36 c-40 39 -47 39 -102 -3 -20 -14 -20 -15 1
-58 l22 -44 -23 -21 c-28 -26 -44 -26 -76 -1 -34 27 -41 25 -80 -14 l-33 -35
32 -36 c36 -41 36 -43 14 -75 -9 -14 -17 -26 -18 -28 -1 -1 -21 5 -45 13 -23
8 -45 13 -49 10 -4 -2 -16 -23 -26 -46 l-19 -42 24 -16 c59 -39 62 -44 49 -78
-10 -31 -14 -33 -60 -33 -53 0 -54 -1 -63 -62 -5 -38 -4 -38 42 -51 45 -14 47
-15 47 -52 0 -37 -2 -38 -49 -52 -42 -12 -47 -17 -42 -36 3 -12 6 -34 6 -49 0
-27 2 -28 54 -28 52 0 55 -1 65 -31 6 -18 11 -33 11 -35 0 -3 -71 -51 -88 -60
-6 -3 40 -94 47 -94 5 0 28 7 51 15 23 8 44 15 46 15 2 0 11 -14 19 -30 15
-30 15 -32 -15 -68 -16 -20 -30 -41 -30 -46 0 -6 14 -24 31 -42 l31 -32 46 29
46 29 25 -24 c38 -38 19 -67 -61 -96 -82 -29 -268 -119 -268 -129 0 -4 9 -16
21 -27 42 -38 43 -52 4 -76 l-37 -21 87 -87 88 -88 61 40 c33 21 65 43 69 47
4 4 -2 25 -14 45 -26 44 -27 43 71 81 295 113 640 106 922 -19 l58 -26 -21
-34 c-11 -20 -18 -39 -15 -44 3 -5 35 -28 71 -50 l64 -41 81 87 c44 47 80 89
80 92 0 4 -16 14 -35 23 -19 9 -35 20 -35 25 0 4 11 24 25 44 l25 38 -87 43
c-49 25 -116 55 -150 67 -39 14 -68 32 -79 47 -15 24 -15 27 9 50 l25 25 44
-26 c25 -14 49 -26 54 -26 5 0 22 16 37 35 l28 35 -35 43 -35 43 22 27 c22 28
22 28 66 12 24 -8 47 -15 50 -15 4 0 17 20 29 45 l21 44 -42 29 c-32 22 -41
34 -39 53 5 45 9 49 67 49 47 0 55 3 55 19 0 10 3 32 6 49 6 29 4 31 -42 44
-46 13 -49 16 -52 50 -3 35 -2 36 49 53 51 17 51 17 45 54 -3 20 -6 42 -6 49
0 8 -17 12 -54 12 -47 0 -54 3 -60 23 -11 41 -6 56 22 71 55 30 54 29 33 80
-22 50 -27 51 -98 25 -18 -7 -25 -2 -41 25 l-19 32 28 32 c36 40 36 49 -2 90
-27 30 -32 32 -47 19 -41 -35 -61 -39 -92 -17 -28 20 -29 23 -16 48 31 62 30
69 -15 98 l-42 26 -32 -37 -31 -38 -33 18 c-33 16 -33 18 -28 66 l6 49 -47 14
-47 13 -23 -43 c-23 -45 -32 -49 -82 -35 -21 6 -26 14 -30 51 l-5 45 -52 3
-52 3 -7 -50z m146 -212 c233 -37 416 -213 465 -445 20 -94 19 -156 -5 -248
-41 -161 -146 -295 -290 -370 l-75 -40 -184 1 -184 2 -75 37 c-182 89 -312
300 -312 504 0 168 98 357 234 455 76 54 135 80 224 99 83 18 119 19 202 5z
m185 -1139 c127 -25 259 -68 370 -120 119 -57 115 -48 60 -126 -81 -115 -61
-110 -188 -49 -341 163 -730 162 -1064 -1 -51 -25 -97 -44 -102 -42 -12 4
-131 148 -131 157 0 13 209 107 295 134 106 33 212 56 310 67 116 13 326 3
450 -20z m-961 -315 c36 -40 49 -47 104 -58 l64 -13 -56 -37 c-31 -20 -59 -37
-63 -37 -5 0 -41 36 -81 80 l-73 79 28 15 c16 8 30 15 32 16 3 0 23 -20 45
-45z m1438 27 l27 -18 -78 -78 -78 -77 -56 33 c-57 33 -70 48 -42 48 7 0 36 5
63 11 42 8 54 17 81 55 36 49 44 52 83 26z"/>
<path d="M881 1669 c0 -19 6 -44 15 -55 15 -19 16 -19 8 1 -3 11 -10 36 -14
55 l-8 35 -1 -36z"/>
<path d="M1126 1691 c-3 -4 -51 -7 -106 -4 -63 2 -100 -1 -100 -7 0 -5 4 -10
10 -10 5 0 6 -8 3 -17 -5 -12 -2 -15 9 -11 9 4 20 2 26 -4 6 -6 8 -1 5 16 -3
15 -1 26 5 26 6 0 13 -12 15 -27 l4 -28 2 28 c1 20 6 27 21 27 21 0 28 -26 8
-32 -13 -5 -2 -28 13 -28 6 0 8 4 5 9 -13 21 7 41 38 40 22 -1 25 -3 9 -6 -23
-5 -38 -29 -22 -38 5 -4 8 -1 7 6 -2 6 3 14 10 16 7 3 12 -4 13 -19 l1 -23 7
24 c4 14 12 26 19 29 9 3 10 -3 2 -24 -6 -15 -8 -29 -6 -32 3 -3 10 7 15 22
10 25 31 36 31 16 0 -5 -4 -10 -10 -10 -17 0 -11 -29 9 -39 15 -8 20 -6 30 15
15 34 15 34 -19 45 -19 7 -30 18 -30 30 0 19 -15 26 -24 10z m64 -76 c-7 -9
-15 -13 -17 -11 -7 7 7 26 19 26 6 0 6 -6 -2 -15z"/>
<path d="M737 1629 c-52 -27 -57 -32 -45 -47 20 -26 31 -32 44 -22 6 6 15 6
19 2 5 -4 1 6 -9 21 -23 37 -11 50 15 17 l20 -25 -12 24 c-10 21 -9 26 7 38
10 7 23 13 28 13 6 0 3 -7 -8 -15 -10 -7 -15 -18 -11 -24 10 -17 25 -13 25 7
1 15 2 15 15 -2 18 -24 19 -16 3 19 -14 31 -20 31 -91 -6z m-7 -51 c0 -26 -13
-16 -17 13 -2 12 1 18 7 14 5 -3 10 -16 10 -27z"/>
<path d="M1265 1591 c6 -20 4 -23 -9 -18 -27 11 -19 -30 9 -49 24 -16 27 -16
40 2 7 10 17 16 21 12 4 -5 -1 -18 -12 -30 l-19 -23 22 19 c19 15 25 16 38 6
8 -7 15 -8 15 -3 0 9 -37 45 -89 88 l-24 20 8 -24z m38 -47 c-3 -8 -9 -14 -14
-14 -13 0 -11 18 4 23 7 3 5 6 -5 6 -10 1 -18 -3 -18 -9 0 -5 -5 -10 -12 -10
-6 0 -3 9 7 20 13 15 21 17 31 9 7 -6 10 -17 7 -25z"/>
<path d="M623 1546 c-21 -19 -35 -37 -32 -41 4 -3 14 1 23 10 18 19 21 13 6
-15 -8 -14 -5 -19 11 -23 16 -4 19 -2 13 15 -5 17 -3 20 12 14 17 -7 17 -6 0
13 -10 11 -15 25 -11 30 10 17 26 13 23 -6 -2 -11 4 -18 17 -20 11 -1 14 0 7
3 -6 3 -10 10 -6 15 3 5 -2 16 -10 24 -14 14 -19 12 -53 -19z"/>
<path d="M908 1560 c-111 -20 -224 -109 -277 -220 -23 -48 -26 -68 -26 -155 0
-93 2 -105 32 -166 39 -80 111 -150 191 -187 49 -23 70 -27 152 -27 83 0 103
4 156 28 74 34 152 110 191 187 26 50 28 64 28 165 0 101 -2 114 -27 162 -85
161 -248 243 -420 213z m52 -98 l0 -89 -57 -29 c-83 -43 -119 -119 -99 -210 6
-29 1 -37 -59 -100 -53 -56 -67 -66 -75 -54 -15 23 -12 29 23 50 17 11 27 20
21 20 -6 0 -23 -9 -38 -21 l-26 -20 -10 27 c-53 139 -28 290 66 394 63 70 154
118 227 119 l27 1 0 -88z m175 59 c51 -22 128 -91 160 -141 38 -61 57 -133 53
-210 -3 -95 -7 -99 -60 -66 -43 27 -24 5 22 -25 22 -15 23 -19 12 -43 -7 -15
-17 -24 -22 -21 -5 3 -7 0 -5 -7 3 -8 0 -22 -8 -31 -12 -17 -18 -13 -76 48
-55 57 -62 69 -56 93 27 108 -23 207 -120 239 l-30 10 -3 93 -3 93 47 -7 c25
-3 65 -14 89 -25z m-135 -218 c8 -13 13 -14 16 -5 8 17 24 15 24 -3 0 -9 6
-12 15 -9 9 4 15 0 15 -9 0 -8 6 -18 13 -21 24 -10 -23 -36 -48 -26 -17 7 -27
5 -37 -7 -9 -12 -9 -15 -1 -9 13 7 53 -9 65 -28 25 -37 -20 -41 -46 -4 -13 18
-14 17 -19 -12 -9 -42 -8 -45 6 -46 6 0 18 -2 24 -2 8 -1 11 -15 9 -39 l-3
-38 -54 0 -54 0 0 40 c0 35 3 40 22 37 20 -3 21 0 18 53 -2 31 -5 59 -8 61 -2
3 -15 0 -29 -5 -15 -5 -30 -5 -41 0 -20 12 -23 33 -3 26 10 -4 12 0 8 15 -4
17 -2 20 11 15 9 -3 18 0 21 9 9 22 26 7 27 -24 2 -27 2 -27 6 -2 9 55 23 65
43 33z m-50 -96 c0 -26 -26 -49 -51 -45 l-24 3 27 28 c29 29 48 35 48 14z
m-89 -163 c9 -8 38 -23 64 -33 54 -21 108 -13 159 22 l28 20 67 -67 66 -67
-30 -25 c-63 -51 -114 -67 -222 -72 -98 -4 -105 -3 -165 26 -35 17 -75 41 -90
54 l-28 23 63 67 c34 36 64 67 66 67 3 1 12 -6 22 -15z"/>
<path d="M710 1180 c0 -5 7 -7 15 -4 8 4 15 8 15 10 0 2 -7 4 -15 4 -8 0 -15
-4 -15 -10z"/>
<path d="M656 1095 c-11 -8 -16 -15 -10 -15 5 0 18 7 28 15 11 8 16 15 10 15
-5 0 -18 -7 -28 -15z"/>
<path d="M740 1070 c-8 -5 -10 -10 -5 -10 6 0 17 5 25 10 8 5 11 10 5 10 -5 0
-17 -5 -25 -10z"/>
<path d="M1188 1183 c7 -3 16 -2 19 1 4 3 -2 6 -13 5 -11 0 -14 -3 -6 -6z"/>
<path d="M1242 1180 c14 -4 32 -11 40 -16 10 -6 10 -4 -1 9 -7 9 -25 17 -40
16 l-26 -1 27 -8z"/>
<path d="M1298 1183 c6 -2 18 -2 25 0 6 3 1 5 -13 5 -14 0 -19 -2 -12 -5z"/>
<path d="M1300 1156 c0 -2 8 -10 18 -17 15 -13 16 -12 3 4 -13 16 -21 21 -21
13z"/>
<path d="M1205 1060 c3 -5 11 -10 16 -10 6 0 7 5 4 10 -3 6 -11 10 -16 10 -6
0 -7 -4 -4 -10z"/>
<path d="M1240 1046 c0 -3 9 -10 20 -16 11 -6 20 -8 20 -6 0 3 -9 10 -20 16
-11 6 -20 8 -20 6z"/>
<path d="M1070 961 c0 -6 5 -13 10 -16 6 -3 10 1 10 9 0 9 -4 16 -10 16 -5 0
-10 -4 -10 -9z"/>
<path d="M1355 1550 c-4 -6 1 -10 9 -10 20 0 31 -19 18 -32 -6 -6 -8 -18 -5
-27 6 -14 4 -14 -14 2 -24 21 -33 22 -33 2 0 -8 7 -15 16 -15 14 0 15 -2 3
-17 -13 -15 -11 -15 16 1 29 17 34 30 27 82 -3 16 -30 26 -37 14z"/>
<path d="M509 1454 c-9 -12 -10 -20 -2 -33 9 -14 6 -34 -12 -87 -17 -53 -24
-65 -30 -50 -5 11 -3 22 6 28 12 8 11 9 -1 5 -22 -6 -25 -39 -5 -53 16 -12 15
-14 -4 -26 -12 -7 -21 -17 -21 -22 0 -4 7 -3 15 4 13 11 15 6 15 -33 0 -33 -5
-49 -17 -56 -15 -8 -16 -12 -5 -22 10 -11 12 -11 12 0 0 23 17 2 24 -29 5 -29
7 -30 28 -18 13 7 27 11 32 10 5 -2 6 4 2 13 -3 9 -6 20 -6 24 0 5 -11 6 -25
3 -14 -2 -25 0 -25 6 0 6 12 13 28 15 25 4 25 4 -5 6 -40 1 -44 18 -5 23 20 2
27 9 28 26 1 17 -4 22 -22 22 -13 0 -24 5 -24 11 0 7 10 9 25 7 13 -3 22 -1
19 3 -3 5 -14 9 -25 9 -10 0 -19 5 -19 10 0 6 12 8 28 5 l27 -5 -27 12 c-28
12 -36 32 -18 43 6 3 10 -1 10 -9 0 -9 7 -16 15 -16 23 0 18 29 -7 41 -20 8
-18 9 12 5 33 -5 33 -4 10 7 -14 6 -26 12 -28 13 -1 0 2 12 7 25 10 24 10 24
10 2 1 -25 22 -30 39 -10 9 10 6 17 -9 30 -16 14 -18 21 -8 38 10 20 11 20 30
3 10 -9 22 -15 25 -12 7 8 -50 48 -69 48 -8 0 -20 -7 -28 -16z m31 -14 c-11
-20 -30 -28 -30 -12 0 11 22 32 32 32 5 0 4 -9 -2 -20z m20 -70 c0 -5 -4 -10
-10 -10 -5 0 -10 5 -10 10 0 6 5 10 10 10 6 0 10 -4 10 -10z m-36 -185 c7 -19
-5 -19 -30 0 -19 14 -19 14 2 15 12 0 24 -7 28 -15z m0 -94 c3 -5 0 -11 -8
-14 -15 -6 -26 1 -26 15 0 11 27 10 34 -1z"/>
<path d="M1405 1415 c-40 -25 -42 -35 -3 -14 16 9 23 8 29 -2 14 -22 10 -33
-6 -19 -20 16 -38 1 -29 -23 4 -12 13 -15 29 -11 13 3 26 1 29 -5 4 -7 -1 -11
-13 -11 -24 0 -34 -14 -26 -39 4 -13 12 -17 33 -13 31 5 20 -12 -13 -22 -12
-3 -9 -4 8 -2 31 4 37 -10 7 -19 -30 -10 -26 -45 5 -45 34 0 32 -18 -2 -23
l-28 -4 28 -2 c20 -1 27 -6 27 -21 0 -24 -9 -26 -25 -3 -14 19 -35 10 -35 -16
0 -13 9 -20 30 -23 26 -4 30 -1 36 26 4 17 14 36 23 43 15 12 15 14 0 26 -9 7
-20 33 -24 57 -3 25 -11 61 -17 81 -7 26 -7 42 1 57 9 16 8 24 -5 36 -19 19
-11 20 -59 -9z m55 -16 c0 -11 -4 -17 -10 -14 -5 3 -10 13 -10 21 0 8 5 14 10
14 6 0 10 -9 10 -21z m-40 -35 c0 -8 -5 -12 -10 -9 -6 4 -8 11 -5 16 9 14 15
11 15 -7z m37 -70 c-3 -4 -14 -3 -24 0 -15 6 -15 8 -3 16 16 10 39 -4 27 -16z
m23 -73 c0 -14 -18 -23 -30 -16 -6 4 -8 11 -5 16 8 12 35 12 35 0z m30 -41 c0
-5 -4 -10 -10 -10 -5 0 -10 5 -10 10 0 6 5 10 10 10 6 0 10 -4 10 -10z m-60
-55 c0 -8 -4 -15 -10 -15 -5 0 -10 7 -10 15 0 8 5 15 10 15 6 0 10 -7 10 -15z"/>
<path d="M556 1421 c-3 -5 1 -11 9 -15 8 -3 15 -1 15 4 0 13 -18 22 -24 11z"/>
<path d="M1410 1066 c14 -8 39 -15 55 -14 29 0 29 0 -5 8 -19 4 -44 10 -55 14
-13 5 -11 2 5 -8z"/>
<path d="M528 1013 c-21 -5 -22 -13 -6 -48 9 -19 9 -28 0 -37 -18 -18 -14 -28
9 -28 14 0 42 -22 75 -57 39 -43 56 -55 62 -45 5 7 16 10 25 6 10 -3 17 -1 17
5 0 6 -4 11 -10 11 -5 0 -10 7 -10 16 0 12 -5 10 -19 -7 -11 -13 -23 -21 -27
-17 -4 5 1 18 12 30 l19 23 -23 -20 c-20 -16 -25 -17 -32 -5 -15 24 -12 32 10
25 16 -5 20 -2 20 14 0 12 -4 21 -10 21 -5 0 -10 -4 -10 -9 0 -5 -7 -12 -16
-15 -17 -7 -44 9 -44 26 0 6 6 5 15 -2 15 -12 35 -6 35 12 0 7 -4 7 -13 -1
-21 -17 -29 0 -10 21 20 23 6 24 -19 1 -10 -9 -21 -13 -25 -9 -4 4 3 16 17 27
23 19 23 19 2 9 -12 -6 -28 -8 -34 -4 -7 5 -4 10 10 15 13 5 22 17 22 29 0 20
-8 22 -42 13z m32 -21 c0 -4 -9 -8 -20 -9 -11 -1 -20 2 -20 8 0 5 9 9 20 9 11
0 20 -4 20 -8z m-20 -72 c0 -5 -5 -10 -11 -10 -5 0 -7 5 -4 10 3 6 8 10 11 10
2 0 4 -4 4 -10z"/>
<path d="M1383 991 c-10 -16 -8 -20 13 -29 21 -10 23 -14 12 -37 -6 -14 -15
-25 -20 -25 -5 0 -4 9 2 19 12 24 -6 40 -23 21 -9 -10 -9 -11 0 -6 9 5 11 2 7
-8 -3 -9 -12 -12 -22 -9 -11 4 -10 0 5 -13 20 -17 21 -21 8 -38 -14 -18 -35
-14 -35 7 0 8 3 8 9 -2 7 -10 10 -10 16 -1 11 18 -15 30 -37 17 -18 -12 -18
-13 3 -30 12 -10 19 -20 15 -24 -3 -3 -14 1 -24 10 -28 26 -38 20 -13 -7 22
-24 22 -25 4 -35 -17 -8 -19 -6 -19 12 1 17 -5 22 -26 23 -29 1 -37 -9 -17
-22 6 -3 15 0 20 7 4 7 11 10 15 6 4 -3 2 -12 -4 -20 -7 -8 -7 -18 -2 -27 7
-12 18 -6 55 30 26 25 66 73 90 107 l44 63 -22 15 c-28 20 -40 19 -54 -4z m44
-27 c-9 -9 -27 6 -27 22 0 13 2 13 16 -1 9 -9 14 -18 11 -21z"/>
<path d="M675 790 c-8 -13 -1 -24 14 -19 6 3 7 10 2 18 -6 10 -10 10 -16 1z"/>
<path d="M777 755 c-12 -8 -14 -15 -7 -20 5 -3 8 -10 5 -14 -2 -5 6 -8 20 -8
14 0 22 4 19 9 -4 6 0 14 7 19 11 7 11 9 -3 9 -9 0 -18 4 -20 9 -1 5 -11 4
-21 -4z"/>
<path d="M1170 757 c-21 -16 -14 -46 11 -44 10 1 19 7 19 13 0 7 6 15 13 17 7
4 6 6 -5 6 -9 1 -18 5 -20 10 -2 5 -10 4 -18 -2z"/>
<path d="M891 713 c1 -34 2 -35 9 -13 11 36 11 50 0 50 -5 0 -10 -17 -9 -37z"/>
<path d="M943 743 c-18 -6 -16 -32 2 -39 8 -4 15 -11 15 -16 0 -6 -8 -7 -17
-3 -14 5 -15 3 -6 -6 17 -17 33 -2 33 31 0 31 -8 40 -27 33z m17 -23 c0 -5 -4
-10 -10 -10 -5 0 -10 5 -10 10 0 6 5 10 10 10 6 0 10 -4 10 -10z"/>
<path d="M994 739 c-4 -8 -3 -9 4 -5 8 5 12 0 12 -13 0 -11 -4 -23 -10 -26
-15 -9 -12 -25 6 -25 8 0 12 4 9 10 -3 5 -1 18 4 29 13 23 -11 52 -25 30z"/>
<path d="M1047 742 c-9 -14 5 -62 19 -62 19 0 28 20 15 33 -9 9 -11 8 -6 -5 4
-10 3 -18 -3 -18 -18 0 -21 49 -3 53 14 4 14 5 -1 6 -9 0 -19 -2 -21 -7z"/>
<path d="M743 546 c-62 -11 -98 -27 -46 -20 15 2 22 1 16 -2 -7 -3 -13 -10
-13 -15 0 -6 4 -8 9 -4 5 3 12 -5 14 -17 3 -17 5 -15 6 9 2 46 19 50 24 6 l4
-38 1 38 c2 41 18 50 25 15 l4 -23 2 23 c0 12 6 22 11 22 16 0 12 -32 -7 -54
-14 -16 -14 -18 -2 -8 9 6 19 9 22 5 4 -3 7 10 7 30 0 34 2 37 30 37 23 0 28
-3 24 -17 -5 -15 -4 -16 5 -3 6 8 11 18 11 23 0 10 -73 7 -147 -7z"/>
<path d="M949 533 c4 -16 6 -35 4 -43 -4 -12 -3 -13 5 -1 5 7 15 10 21 7 7 -5
11 4 11 23 0 44 18 38 23 -6 l4 -38 1 36 c2 33 5 36 32 37 36 1 46 -11 24 -29
-13 -10 -17 -10 -26 2 -8 12 -9 12 -6 0 2 -8 23 -20 45 -26 34 -10 40 -10 36
1 -2 7 -12 10 -21 7 -12 -5 -14 -2 -9 11 4 10 7 22 7 27 0 4 8 6 18 3 14 -5
15 -4 2 5 -8 6 -45 11 -81 11 -65 0 -66 0 -61 -25 2 -15 0 -25 -7 -25 -6 0
-11 11 -11 25 0 14 -4 25 -9 25 -6 0 -6 -12 -2 -27z"/>
<path d="M840 524 c-11 -12 -10 -18 5 -32 18 -16 18 -16 6 1 -11 14 -11 20 -1
32 7 8 10 15 7 15 -2 0 -10 -7 -17 -16z"/>
<path d="M1218 515 c3 -19 0 -25 -14 -26 -15 0 -15 -2 -4 -6 8 -3 18 -11 22
-17 4 -6 8 8 8 32 0 23 -4 42 -9 42 -4 0 -6 -11 -3 -25z"/>
<path d="M1310 524 c-14 -7 -23 -14 -20 -15 20 -4 71 -6 58 -3 -21 6 -24 24
-5 24 7 0 23 -14 36 -31 13 -17 25 -28 29 -25 7 8 -49 66 -62 65 -6 -1 -22 -7
-36 -15z"/>
<path d="M1260 520 c13 -9 13 -11 0 -19 -16 -11 -7 -27 9 -16 18 11 13 45 -6
45 -15 0 -16 -2 -3 -10z"/>
<path d="M595 508 c3 -7 -6 -18 -20 -25 -28 -13 -34 0 -7 17 13 8 11 9 -13 4
-16 -4 -37 -11 -45 -16 -10 -6 -7 -7 10 -2 25 6 25 6 5 -13 -19 -19 -51 -21
-39 -2 3 5 -2 9 -10 9 -23 0 -20 -7 16 -39 28 -24 36 -27 53 -18 11 6 24 10
28 9 4 -1 3 6 -2 17 -11 20 -6 31 15 31 7 0 14 -10 16 -22 3 -14 6 -7 9 20 3
29 1 42 -8 42 -7 0 -10 -6 -8 -12z m-45 -58 c0 -19 -20 -27 -33 -13 -8 7 11
33 24 33 5 0 9 -9 9 -20z"/>
<path d="M1185 510 c-3 -6 1 -7 9 -4 18 7 21 14 7 14 -6 0 -13 -4 -16 -10z"/>
<path d="M670 492 c0 -17 21 -25 31 -13 5 6 6 9 3 6 -4 -3 -13 0 -21 6 -9 8
-13 8 -13 1z"/>
<path d="M1350 481 c0 -6 7 -11 15 -11 8 0 15 -4 15 -10 0 -5 -4 -10 -10 -10
-5 0 -10 -5 -10 -12 0 -9 3 -9 12 0 17 17 26 15 31 -5 4 -15 5 -15 6 2 1 13
-10 27 -29 38 -17 10 -30 13 -30 8z"/>
<path d="M373 463 c-3 -10 -15 -25 -26 -34 -13 -11 -16 -18 -8 -23 6 -4 11 -2
11 3 0 21 19 11 23 -11 4 -21 4 -21 4 2 2 65 3 70 23 70 11 0 20 -5 20 -11 0
-5 5 -7 10 -4 6 3 10 2 10 -4 0 -5 -9 -13 -20 -16 -20 -6 -28 -39 -12 -49 5
-3 8 4 8 16 -1 29 21 34 27 6 2 -13 5 -6 6 18 1 35 -2 43 -21 48 -37 9 -48 7
-55 -11z"/>
<path d="M1447 470 c13 -13 56 -23 49 -12 -3 5 -17 12 -32 15 -14 2 -22 1 -17
-3z"/>
<path d="M1325 450 c-3 -5 -1 -10 4 -10 6 0 11 5 11 10 0 6 -2 10 -4 10 -3 0
-8 -4 -11 -10z"/>
<path d="M1420 449 c0 -5 5 -7 10 -4 6 3 10 8 10 11 0 2 -4 4 -10 4 -5 0 -10
-5 -10 -11z"/>
<path d="M1513 436 c4 -10 7 -24 7 -32 0 -8 8 -18 18 -21 9 -4 20 -11 24 -17
4 -6 8 4 8 22 0 29 3 32 20 27 31 -10 24 2 -8 13 -25 9 -28 7 -28 -11 1 -11
-4 -22 -11 -24 -8 -3 -11 5 -10 23 1 16 -4 29 -12 32 -10 3 -12 0 -8 -12z"/>
<path d="M1436 432 c-2 -4 4 -13 14 -19 15 -10 17 -9 13 8 -5 20 -18 25 -27
11z"/>
<path d="M1618 397 c-3 -6 -2 -23 2 -37 6 -24 7 -23 12 8 5 32 -6 54 -14 29z"/>
<path d="M1580 389 c0 -5 5 -7 10 -4 6 3 10 8 10 11 0 2 -4 4 -10 4 -5 0 -10
-5 -10 -11z"/>
<path d="M329 381 c7 -5 10 -14 6 -20 -5 -9 -10 -9 -21 0 -8 6 -17 10 -19 7
-3 -3 1 -11 10 -18 12 -10 18 -10 30 0 20 17 19 40 -2 40 -14 0 -15 -2 -4 -9z"/>
<path d="M1001 1823 c0 -31 2 -34 9 -18 12 28 12 55 0 55 -5 0 -10 -17 -9 -37z"/>
<path d="M881 1842 c0 -7 -5 -11 -11 -7 -5 3 -4 -9 3 -27 10 -29 12 -30 15
-10 2 12 1 30 -1 40 -3 9 -5 11 -6 4z"/>
<path d="M942 1820 c0 -19 2 -27 5 -17 2 9 2 25 0 35 -3 9 -5 1 -5 -18z"/>
<path d="M972 1820 c0 -19 2 -27 5 -17 2 9 2 25 0 35 -3 9 -5 1 -5 -18z"/>
<path d="M1027 1826 c-4 -15 -6 -31 -2 -34 10 -10 16 6 13 35 l-3 28 -8 -29z"/>
<path d="M1067 1843 c-4 -3 -7 -19 -7 -35 0 -43 34 -34 38 10 3 31 -13 44 -31
25z m23 -28 c0 -14 -4 -25 -10 -25 -11 0 -14 33 -3 43 11 11 13 8 13 -18z"/>
<path d="M805 1830 c-11 -18 7 -60 26 -60 21 0 26 25 7 36 -8 5 -9 2 -5 -9 3
-10 2 -17 -2 -17 -9 0 -21 24 -21 42 0 6 7 7 16 4 8 -3 12 -2 9 4 -8 13 -22
13 -30 0z"/>
<path d="M1120 1821 c0 -11 -3 -28 -7 -38 -3 -10 -3 -15 1 -12 12 11 25 69 15
69 -5 0 -9 -9 -9 -19z"/>
<path d="M1165 1820 c-3 -5 -3 -15 0 -20 4 -6 1 -9 -6 -8 -6 2 -14 -3 -17 -11
-3 -9 0 -11 8 -6 7 4 16 2 21 -6 6 -10 9 -2 9 24 0 38 -4 45 -15 27z"/>
<path d="M746 1811 c-8 -12 11 -61 23 -61 16 0 23 20 17 46 -6 24 -30 33 -40
15z m28 -17 c11 -28 6 -39 -9 -20 -8 11 -15 23 -15 28 0 14 18 9 24 -8z"/>
<path d="M1202 1778 c-10 -30 -10 -31 3 -14 15 19 15 19 15 -2 0 -32 14 -27
28 11 10 29 10 30 -3 13 -15 -19 -15 -19 -15 2 0 32 -14 27 -28 -10z"/>
<path d="M705 1760 c9 -16 20 -30 25 -30 16 0 12 17 -5 24 -8 3 -15 12 -15 21
0 8 -5 15 -10 15 -6 0 -4 -13 5 -30z"/>
<path d="M644 1766 c-7 -19 13 -56 31 -56 23 0 28 19 11 45 -18 28 -34 32 -42
11z m36 -26 c7 -13 7 -20 1 -20 -6 0 -15 9 -21 20 -7 13 -7 20 -1 20 6 0 15
-9 21 -20z"/>
<path d="M1294 1744 c6 -21 4 -25 -8 -21 -9 4 -16 2 -16 -2 0 -13 29 -22 35
-10 4 5 3 19 -1 31 -5 17 -3 20 10 15 10 -4 15 -3 11 3 -3 6 -13 10 -22 10
-11 0 -14 -6 -9 -26z"/>
<path d="M610 1744 c0 -6 3 -14 8 -18 4 -4 7 -13 7 -18 0 -6 6 -13 13 -15 6
-3 12 -1 12 4 -1 13 -40 59 -40 47z"/>
<path d="M1336 1721 c-10 -11 -16 -27 -13 -36 7 -17 27 -21 27 -5 0 6 -5 10
-10 10 -7 0 -7 7 0 21 10 17 14 18 27 7 14 -11 15 -11 12 1 -8 23 -24 23 -43
2z"/>
<path d="M597 1700 c9 -16 21 -30 26 -30 5 0 4 7 -3 15 -6 8 -9 18 -6 24 3 5
-1 12 -10 15 -25 10 -26 8 -7 -24z"/>
<path d="M564 1693 c5 -14 3 -23 -3 -23 -6 0 -11 5 -11 10 0 6 -5 10 -10 10
-6 0 -3 -11 7 -25 21 -28 35 -33 26 -8 -5 13 -3 15 12 9 18 -7 18 -6 0 16 -11
13 -22 25 -24 28 -2 3 0 -5 3 -17z"/>
<path d="M1382 1687 c-23 -24 -32 -51 -10 -29 17 17 33 15 18 -3 -18 -22 4
-19 23 3 20 22 23 39 4 23 -8 -6 -17 -8 -20 -4 -4 3 -2 12 4 20 19 22 4 15
-19 -10z"/>
<path d="M501 1656 c-10 -12 -8 -19 9 -36 12 -12 26 -20 33 -17 15 5 21 27 8
27 -6 0 -11 -5 -11 -12 0 -6 -9 -3 -20 7 -15 14 -17 20 -8 26 7 4 10 11 7 14
-4 3 -12 -1 -18 -9z"/>
<path d="M1428 1649 c-21 -12 -24 -49 -5 -49 19 0 50 37 42 49 -8 13 -15 13
-37 0z m32 -8 c0 -13 -29 -35 -37 -28 -7 8 15 37 28 37 5 0 9 -4 9 -9z"/>
<path d="M456 1611 c-4 -5 7 -19 23 -30 18 -13 32 -17 36 -11 3 5 1 10 -6 10
-6 0 -20 9 -29 20 -10 12 -21 17 -24 11z"/>
<path d="M1461 1597 c-18 -20 -19 -26 -8 -36 20 -16 63 19 54 42 -9 23 -19 21
-46 -6z m26 -14 c-9 -9 -20 -13 -24 -9 -4 4 -1 11 7 16 25 16 35 11 17 -7z"/>
<path d="M426 1573 c-9 -9 -7 -23 2 -21 4 1 17 -3 30 -10 12 -7 22 -11 22 -9
0 9 -49 45 -54 40z"/>
<path d="M1499 1551 c-20 -17 -22 -22 -10 -33 11 -10 12 -10 7 0 -5 7 2 20 16
32 13 11 20 19 17 20 -4 0 -17 -9 -30 -19z"/>
<path d="M380 1501 c0 -8 43 -41 55 -41 3 0 0 9 -7 19 -7 11 -16 17 -20 15 -4
-3 -8 0 -8 5 0 6 -4 11 -10 11 -5 0 -10 -4 -10 -9z"/>
<path d="M1543 1497 c-25 -11 -32 -47 -9 -47 8 0 24 8 36 18 18 15 20 20 9 29
-10 7 -21 7 -36 0z m27 -16 c0 -11 -31 -24 -39 -16 -3 3 1 10 9 15 19 12 30
12 30 1z"/>
<path d="M363 1454 c-7 -19 23 -46 46 -42 27 5 22 27 -9 43 -28 14 -31 14 -37
-1z m42 -15 c11 -17 0 -20 -21 -4 -17 13 -17 14 -2 15 9 0 20 -5 23 -11z"/>
<path d="M1563 1440 c-28 -12 -30 -19 -3 -17 11 1 20 5 20 10 0 5 7 6 16 3 8
-3 12 -2 9 4 -7 12 -13 12 -42 0z"/>
<path d="M330 1368 c0 -10 6 -18 13 -18 6 0 22 -3 35 -6 17 -5 22 -2 22 11 0
14 -3 15 -15 5 -12 -10 -15 -9 -15 6 0 16 -2 17 -10 4 -9 -13 -11 -13 -20 0
-8 13 -10 12 -10 -2z"/>
<path d="M1575 1370 l-20 -9 20 0 c16 -1 17 -3 5 -11 -8 -5 -12 -12 -8 -15 3
-3 13 1 21 10 9 8 20 15 26 15 6 0 11 5 11 10 0 12 -27 12 -55 0z"/>
<path d="M318 1325 c-4 -17 0 -20 28 -21 18 0 31 3 28 8 -3 4 -14 8 -24 8 -10
0 -20 6 -22 12 -3 7 -7 4 -10 -7z"/>
<path d="M1591 1326 c-9 -11 -6 -12 14 -8 14 2 28 8 31 13 9 15 -33 10 -45 -5z"/>
<path d="M1605 1300 l-30 -8 33 -1 c17 0 32 4 32 9 0 6 -1 9 -2 9 -2 -1 -16
-5 -33 -9z"/>
<path d="M338 1266 c38 -13 32 -29 -7 -20 -20 4 -23 3 -11 -5 20 -14 47 -14
56 1 9 14 -23 38 -50 37 -15 0 -12 -4 12 -13z"/>
<path d="M1609 1259 c16 -6 28 -6 35 1 7 7 -1 10 -24 9 -33 0 -34 -1 -11 -10z"/>
<path d="M1595 1240 c-4 -6 7 -10 27 -9 27 0 30 2 13 9 -27 12 -33 12 -40 0z"/>
<path d="M300 1197 c0 -9 11 -12 36 -9 41 5 40 7 -3 15 -23 5 -33 3 -33 -6z"/>
<path d="M1590 1193 c0 -15 2 -16 10 -3 8 12 11 13 19 1 7 -11 9 -11 14 0 4
12 7 11 16 -1 9 -13 11 -13 11 3 0 13 -8 17 -35 17 -27 0 -35 -4 -35 -17z"/>
<path d="M323 1153 c9 -2 25 -2 35 0 9 3 1 5 -18 5 -19 0 -27 -2 -17 -5z"/>
<path d="M1590 1140 c0 -21 24 -28 35 -10 9 15 27 12 19 -2 -6 -10 -4 -10 7 0
10 9 10 15 1 24 -9 9 -17 7 -33 -8 -20 -17 -22 -17 -16 -1 4 9 2 17 -3 17 -6
0 -10 -9 -10 -20z"/>
<path d="M310 1103 c0 -10 5 -11 18 -5 9 5 24 12 32 15 8 3 0 5 -17 4 -20 -1
-33 -7 -33 -14z"/>
<path d="M1590 1100 c8 -5 26 -10 39 -10 32 0 24 6 -19 14 -25 4 -31 3 -20 -4z"/>
<path d="M347 1065 c-4 -8 -11 -15 -17 -15 -6 0 -8 5 -4 12 4 7 3 8 -4 4 -12
-7 -5 -36 8 -36 4 0 15 10 24 23 13 17 16 18 12 4 -4 -12 -2 -17 6 -15 7 3 13
11 13 19 0 19 -31 23 -38 4z"/>
<path d="M365 1023 c-32 -8 -37 -19 -8 -18 14 0 28 6 31 13 2 6 2 11 0 11 -1
-1 -12 -3 -23 -6z"/>
<path d="M1567 1016 c-7 -18 12 -36 39 -36 33 0 39 29 8 40 -34 13 -41 13 -47
-4z m53 -18 c0 -13 -32 -6 -37 9 -3 7 3 9 16 6 12 -3 21 -10 21 -15z"/>
<path d="M337 981 c-10 -12 -8 -13 13 -8 14 4 31 7 38 7 6 0 12 3 12 8 0 13
-51 7 -63 -7z"/>
<path d="M371 959 c-13 -5 -21 -12 -18 -15 3 -3 18 1 34 10 31 17 21 20 -16 5z"/>
<path d="M1560 966 c0 -2 15 -9 33 -15 29 -10 30 -9 13 4 -18 14 -46 20 -46
11z"/>
<path d="M1545 942 c6 -5 21 -13 35 -17 17 -5 22 -4 15 3 -5 5 -21 13 -35 17
-17 5 -22 4 -15 -3z"/>
<path d="M393 910 c-27 -11 -31 -23 -5 -13 15 6 15 5 3 -10 -20 -25 -7 -31 26
-12 15 9 20 14 11 11 -10 -3 -18 -1 -18 4 0 6 5 10 10 10 6 0 10 5 10 10 0 12
-7 12 -37 0z"/>
<path d="M1535 910 c3 -5 1 -10 -4 -10 -6 0 -11 -4 -11 -10 0 -14 27 -12 33 3
3 7 6 5 6 -5 1 -10 8 -18 16 -18 21 0 19 9 -7 31 -25 20 -43 25 -33 9z"/>
<path d="M419 844 l-24 -27 34 7 c38 7 48 13 38 22 -4 4 -15 1 -24 -7 -15 -11
-15 -10 1 9 27 31 5 28 -25 -4z"/>
<path d="M1520 856 c14 -18 13 -18 -8 -12 -12 4 -22 4 -22 1 0 -10 43 -44 55
-44 6 0 1 7 -10 16 -20 15 -20 15 3 10 29 -7 25 11 -9 32 -23 15 -23 15 -9 -3z"/>
<path d="M449 800 c-31 -25 -12 -26 21 0 14 11 20 20 14 20 -7 0 -22 -9 -35
-20z"/>
<path d="M1463 805 c-6 -16 22 -44 44 -45 23 0 24 21 1 40 -28 24 -37 25 -45
5z m47 -27 c0 -5 -9 -3 -20 4 -11 7 -20 16 -20 20 0 5 9 3 20 -4 11 -7 20 -16
20 -20z"/>
<path d="M471 777 c-17 -19 -19 -26 -9 -35 19 -15 64 19 55 42 -9 22 -20 20
-46 -7z m26 -14 c-9 -9 -19 -14 -23 -11 -10 10 6 28 24 28 15 0 15 -1 -1 -17z"/>
<path d="M1440 765 c0 -8 5 -15 12 -15 6 0 8 -3 5 -6 -4 -4 -13 -1 -22 6 -8 7
-15 9 -15 5 0 -11 32 -34 48 -35 9 0 9 7 -3 30 -17 33 -25 38 -25 15z"/>
<path d="M510 735 c-22 -24 -16 -37 7 -14 8 8 13 7 18 -2 5 -7 4 -10 -2 -6 -6
4 -13 0 -17 -8 -8 -22 8 -18 30 7 10 12 13 18 5 13 -11 -6 -13 -4 -8 8 10 27
-9 28 -33 2z"/>
<path d="M1386 723 c-9 -22 25 -56 47 -47 15 5 15 9 -6 34 -26 34 -33 36 -41
13z m34 -18 c7 -9 10 -18 7 -22 -8 -7 -37 15 -37 28 0 14 16 11 30 -6z"/>
<path d="M560 695 c-13 -14 -21 -27 -18 -30 2 -3 14 9 27 25 26 37 23 39 -9 5z"/>
</g>
</svg>
